<mxfile host="Electron" agent="Mozilla/5.0 (Windows NT 10.0; Win64; x64) AppleWebKit/537.36 (KHTML, like Gecko) draw.io/28.0.6 Chrome/138.0.7204.100 Electron/37.2.3 Safari/537.36" version="28.0.6">
  <diagram name="페이지-1" id="02gUsdN6pwBe_EvwUg35">
    <mxGraphModel dx="1394" dy="1920" grid="1" gridSize="10" guides="1" tooltips="1" connect="1" arrows="1" fold="1" page="1" pageScale="1" pageWidth="827" pageHeight="1169" math="0" shadow="0">
      <root>
        <mxCell id="0" />
        <mxCell id="1" parent="0" />
        <mxCell id="F9RwOy6IDSr6BLu9DQx--6" value="Y" style="edgeStyle=orthogonalEdgeStyle;rounded=0;orthogonalLoop=1;jettySize=auto;html=1;exitX=0;exitY=0.5;exitDx=0;exitDy=0;exitPerimeter=0;entryX=1;entryY=0.5;entryDx=0;entryDy=0;" parent="1" source="F9RwOy6IDSr6BLu9DQx--2" edge="1">
          <mxGeometry relative="1" as="geometry">
            <mxPoint x="170" y="240" as="targetPoint" />
            <Array as="points">
              <mxPoint x="205" y="240" />
              <mxPoint x="205" y="241" />
            </Array>
          </mxGeometry>
        </mxCell>
        <mxCell id="F9RwOy6IDSr6BLu9DQx--9" style="edgeStyle=orthogonalEdgeStyle;rounded=0;orthogonalLoop=1;jettySize=auto;html=1;exitX=0.5;exitY=1;exitDx=0;exitDy=0;exitPerimeter=0;" parent="1" source="F9RwOy6IDSr6BLu9DQx--2" target="F9RwOy6IDSr6BLu9DQx--8" edge="1">
          <mxGeometry relative="1" as="geometry" />
        </mxCell>
        <mxCell id="F9RwOy6IDSr6BLu9DQx--2" value="current ==0" style="strokeWidth=2;html=1;shape=mxgraph.flowchart.decision;whiteSpace=wrap;" parent="1" vertex="1">
          <mxGeometry x="220" y="190" width="100" height="100" as="geometry" />
        </mxCell>
        <mxCell id="F9RwOy6IDSr6BLu9DQx--3" value="&lt;div style=&quot;background-color:#282a36;color:#f8f8f2&quot;&gt;&lt;pre style=&quot;font-family:&#39;JetBrains Mono&#39;,monospace;font-size:9.0pt;&quot;&gt;&lt;span style=&quot;color:#50fa7b;&quot;&gt;doQuestion&lt;/span&gt;&lt;/pre&gt;&lt;/div&gt;" style="strokeWidth=2;html=1;shape=mxgraph.flowchart.terminator;whiteSpace=wrap;" parent="1" vertex="1">
          <mxGeometry x="220" y="20" width="100" height="40" as="geometry" />
        </mxCell>
        <mxCell id="F9RwOy6IDSr6BLu9DQx--4" style="edgeStyle=orthogonalEdgeStyle;rounded=0;orthogonalLoop=1;jettySize=auto;html=1;entryX=0.5;entryY=0;entryDx=0;entryDy=0;entryPerimeter=0;" parent="1" source="F9RwOy6IDSr6BLu9DQx--106" target="F9RwOy6IDSr6BLu9DQx--2" edge="1">
          <mxGeometry relative="1" as="geometry" />
        </mxCell>
        <mxCell id="F9RwOy6IDSr6BLu9DQx--10" style="edgeStyle=orthogonalEdgeStyle;rounded=0;orthogonalLoop=1;jettySize=auto;html=1;exitX=0.5;exitY=1;exitDx=0;exitDy=0;entryX=0.5;entryY=0;entryDx=0;entryDy=0;" parent="1" source="F9RwOy6IDSr6BLu9DQx--7" target="F9RwOy6IDSr6BLu9DQx--8" edge="1">
          <mxGeometry relative="1" as="geometry">
            <Array as="points">
              <mxPoint x="100" y="240" />
              <mxPoint x="100" y="320" />
              <mxPoint x="270" y="320" />
            </Array>
          </mxGeometry>
        </mxCell>
        <mxCell id="F9RwOy6IDSr6BLu9DQx--7" value="breadcrumb 세팅" style="rounded=0;whiteSpace=wrap;html=1;" parent="1" vertex="1">
          <mxGeometry x="50" y="210" width="120" height="60" as="geometry" />
        </mxCell>
        <mxCell id="F9RwOy6IDSr6BLu9DQx--8" value="current index의 질문가져옴" style="rounded=0;whiteSpace=wrap;html=1;" parent="1" vertex="1">
          <mxGeometry x="210" y="380" width="120" height="60" as="geometry" />
        </mxCell>
        <mxCell id="F9RwOy6IDSr6BLu9DQx--16" style="edgeStyle=orthogonalEdgeStyle;rounded=0;orthogonalLoop=1;jettySize=auto;html=1;exitX=1;exitY=0.5;exitDx=0;exitDy=0;exitPerimeter=0;" parent="1" source="F9RwOy6IDSr6BLu9DQx--11" target="F9RwOy6IDSr6BLu9DQx--13" edge="1">
          <mxGeometry relative="1" as="geometry">
            <mxPoint x="330" y="520" as="targetPoint" />
          </mxGeometry>
        </mxCell>
        <mxCell id="F9RwOy6IDSr6BLu9DQx--17" value="Y" style="edgeLabel;html=1;align=center;verticalAlign=middle;resizable=0;points=[];" parent="F9RwOy6IDSr6BLu9DQx--16" vertex="1" connectable="0">
          <mxGeometry x="-0.2" relative="1" as="geometry">
            <mxPoint as="offset" />
          </mxGeometry>
        </mxCell>
        <mxCell id="F9RwOy6IDSr6BLu9DQx--11" value="보험 변경 기간?" style="strokeWidth=2;html=1;shape=mxgraph.flowchart.decision;whiteSpace=wrap;" parent="1" vertex="1">
          <mxGeometry x="220" y="470" width="90" height="100" as="geometry" />
        </mxCell>
        <mxCell id="F9RwOy6IDSr6BLu9DQx--12" style="edgeStyle=orthogonalEdgeStyle;rounded=0;orthogonalLoop=1;jettySize=auto;html=1;exitX=0.5;exitY=1;exitDx=0;exitDy=0;entryX=0.5;entryY=0;entryDx=0;entryDy=0;entryPerimeter=0;" parent="1" source="F9RwOy6IDSr6BLu9DQx--8" target="F9RwOy6IDSr6BLu9DQx--11" edge="1">
          <mxGeometry relative="1" as="geometry" />
        </mxCell>
        <mxCell id="F9RwOy6IDSr6BLu9DQx--15" style="edgeStyle=orthogonalEdgeStyle;rounded=0;orthogonalLoop=1;jettySize=auto;html=1;exitX=1;exitY=0.5;exitDx=0;exitDy=0;exitPerimeter=0;entryX=0;entryY=0.5;entryDx=0;entryDy=0;" parent="1" source="F9RwOy6IDSr6BLu9DQx--13" target="F9RwOy6IDSr6BLu9DQx--14" edge="1">
          <mxGeometry relative="1" as="geometry" />
        </mxCell>
        <mxCell id="F9RwOy6IDSr6BLu9DQx--18" value="N" style="edgeLabel;html=1;align=center;verticalAlign=middle;resizable=0;points=[];" parent="F9RwOy6IDSr6BLu9DQx--15" vertex="1" connectable="0">
          <mxGeometry x="-0.4" y="-2" relative="1" as="geometry">
            <mxPoint as="offset" />
          </mxGeometry>
        </mxCell>
        <mxCell id="F9RwOy6IDSr6BLu9DQx--13" value="의료비 보장&lt;br&gt;관련 보험?" style="strokeWidth=2;html=1;shape=mxgraph.flowchart.decision;whiteSpace=wrap;" parent="1" vertex="1">
          <mxGeometry x="350" y="470" width="100" height="100" as="geometry" />
        </mxCell>
        <mxCell id="F9RwOy6IDSr6BLu9DQx--19" style="edgeStyle=orthogonalEdgeStyle;rounded=0;orthogonalLoop=1;jettySize=auto;html=1;exitX=0.5;exitY=0;exitDx=0;exitDy=0;entryX=1;entryY=0.5;entryDx=0;entryDy=0;" parent="1" source="F9RwOy6IDSr6BLu9DQx--14" target="F9RwOy6IDSr6BLu9DQx--8" edge="1">
          <mxGeometry relative="1" as="geometry" />
        </mxCell>
        <mxCell id="F9RwOy6IDSr6BLu9DQx--14" value="current++" style="rounded=0;whiteSpace=wrap;html=1;" parent="1" vertex="1">
          <mxGeometry x="480" y="490" width="120" height="60" as="geometry" />
        </mxCell>
        <mxCell id="F9RwOy6IDSr6BLu9DQx--60" style="edgeStyle=orthogonalEdgeStyle;rounded=0;orthogonalLoop=1;jettySize=auto;html=1;exitX=1;exitY=0.5;exitDx=0;exitDy=0;exitPerimeter=0;" parent="1" source="F9RwOy6IDSr6BLu9DQx--20" target="F9RwOy6IDSr6BLu9DQx--46" edge="1">
          <mxGeometry relative="1" as="geometry" />
        </mxCell>
        <mxCell id="F9RwOy6IDSr6BLu9DQx--61" value="배우자" style="edgeLabel;html=1;align=center;verticalAlign=middle;resizable=0;points=[];" parent="F9RwOy6IDSr6BLu9DQx--60" vertex="1" connectable="0">
          <mxGeometry x="-0.1236" y="-4" relative="1" as="geometry">
            <mxPoint as="offset" />
          </mxGeometry>
        </mxCell>
        <mxCell id="F9RwOy6IDSr6BLu9DQx--98" value="자녀" style="edgeStyle=orthogonalEdgeStyle;rounded=0;orthogonalLoop=1;jettySize=auto;html=1;exitX=0.5;exitY=1;exitDx=0;exitDy=0;exitPerimeter=0;entryX=0.5;entryY=0;entryDx=0;entryDy=0;" parent="1" source="F9RwOy6IDSr6BLu9DQx--20" target="F9RwOy6IDSr6BLu9DQx--97" edge="1">
          <mxGeometry relative="1" as="geometry">
            <Array as="points">
              <mxPoint x="265" y="760" />
              <mxPoint x="265" y="760" />
            </Array>
          </mxGeometry>
        </mxCell>
        <mxCell id="F9RwOy6IDSr6BLu9DQx--20" value="보험대상자" style="strokeWidth=2;html=1;shape=mxgraph.flowchart.decision;whiteSpace=wrap;" parent="1" vertex="1">
          <mxGeometry x="215" y="630" width="100" height="100" as="geometry" />
        </mxCell>
        <mxCell id="F9RwOy6IDSr6BLu9DQx--23" style="edgeStyle=orthogonalEdgeStyle;rounded=0;orthogonalLoop=1;jettySize=auto;html=1;exitX=0.5;exitY=1;exitDx=0;exitDy=0;exitPerimeter=0;entryX=0.49;entryY=0.07;entryDx=0;entryDy=0;entryPerimeter=0;" parent="1" source="F9RwOy6IDSr6BLu9DQx--11" target="F9RwOy6IDSr6BLu9DQx--20" edge="1">
          <mxGeometry relative="1" as="geometry" />
        </mxCell>
        <mxCell id="F9RwOy6IDSr6BLu9DQx--33" style="edgeStyle=orthogonalEdgeStyle;rounded=0;orthogonalLoop=1;jettySize=auto;html=1;exitX=1;exitY=0.5;exitDx=0;exitDy=0;exitPerimeter=0;entryX=0;entryY=0.5;entryDx=0;entryDy=0;" parent="1" source="F9RwOy6IDSr6BLu9DQx--27" target="F9RwOy6IDSr6BLu9DQx--32" edge="1">
          <mxGeometry relative="1" as="geometry">
            <Array as="points">
              <mxPoint x="425" y="1570" />
              <mxPoint x="425" y="1570" />
            </Array>
          </mxGeometry>
        </mxCell>
        <mxCell id="F9RwOy6IDSr6BLu9DQx--34" value="N" style="edgeLabel;html=1;align=center;verticalAlign=middle;resizable=0;points=[];" parent="F9RwOy6IDSr6BLu9DQx--33" vertex="1" connectable="0">
          <mxGeometry x="-0.0909" y="-2" relative="1" as="geometry">
            <mxPoint as="offset" />
          </mxGeometry>
        </mxCell>
        <mxCell id="F9RwOy6IDSr6BLu9DQx--37" style="edgeStyle=orthogonalEdgeStyle;rounded=0;orthogonalLoop=1;jettySize=auto;html=1;exitX=0.5;exitY=1;exitDx=0;exitDy=0;exitPerimeter=0;" parent="1" source="F9RwOy6IDSr6BLu9DQx--27" edge="1">
          <mxGeometry relative="1" as="geometry">
            <mxPoint x="350" y="1660" as="targetPoint" />
          </mxGeometry>
        </mxCell>
        <mxCell id="F9RwOy6IDSr6BLu9DQx--27" value="유의사항 봤나?" style="strokeWidth=2;html=1;shape=mxgraph.flowchart.decision;whiteSpace=wrap;" parent="1" vertex="1">
          <mxGeometry x="300" y="1520" width="100" height="100" as="geometry" />
        </mxCell>
        <mxCell id="F9RwOy6IDSr6BLu9DQx--28" style="edgeStyle=orthogonalEdgeStyle;rounded=0;orthogonalLoop=1;jettySize=auto;html=1;exitX=0;exitY=0.5;exitDx=0;exitDy=0;exitPerimeter=0;entryX=0;entryY=0.5;entryDx=0;entryDy=0;entryPerimeter=0;" parent="1" source="F9RwOy6IDSr6BLu9DQx--20" target="F9RwOy6IDSr6BLu9DQx--27" edge="1">
          <mxGeometry relative="1" as="geometry">
            <Array as="points">
              <mxPoint x="170" y="680" />
              <mxPoint x="170" y="1570" />
            </Array>
          </mxGeometry>
        </mxCell>
        <mxCell id="F9RwOy6IDSr6BLu9DQx--59" value="본인" style="edgeLabel;html=1;align=center;verticalAlign=middle;resizable=0;points=[];" parent="F9RwOy6IDSr6BLu9DQx--28" vertex="1" connectable="0">
          <mxGeometry x="-0.0289" relative="1" as="geometry">
            <mxPoint as="offset" />
          </mxGeometry>
        </mxCell>
        <mxCell id="F9RwOy6IDSr6BLu9DQx--36" style="edgeStyle=orthogonalEdgeStyle;rounded=0;orthogonalLoop=1;jettySize=auto;html=1;exitX=0.5;exitY=1;exitDx=0;exitDy=0;entryX=0.5;entryY=0;entryDx=0;entryDy=0;" parent="1" source="F9RwOy6IDSr6BLu9DQx--32" target="F9RwOy6IDSr6BLu9DQx--35" edge="1">
          <mxGeometry relative="1" as="geometry" />
        </mxCell>
        <mxCell id="F9RwOy6IDSr6BLu9DQx--38" value="Y" style="edgeLabel;html=1;align=center;verticalAlign=middle;resizable=0;points=[];" parent="F9RwOy6IDSr6BLu9DQx--36" vertex="1" connectable="0">
          <mxGeometry x="0.8311" y="-1" relative="1" as="geometry">
            <mxPoint as="offset" />
          </mxGeometry>
        </mxCell>
        <mxCell id="F9RwOy6IDSr6BLu9DQx--32" value="유희사항 표시" style="rounded=0;whiteSpace=wrap;html=1;" parent="1" vertex="1">
          <mxGeometry x="455" y="1540" width="120" height="60" as="geometry" />
        </mxCell>
        <mxCell id="F9RwOy6IDSr6BLu9DQx--42" style="edgeStyle=orthogonalEdgeStyle;rounded=0;orthogonalLoop=1;jettySize=auto;html=1;exitX=0.5;exitY=1;exitDx=0;exitDy=0;entryX=0.5;entryY=0;entryDx=0;entryDy=0;" parent="1" source="F9RwOy6IDSr6BLu9DQx--35" target="F9RwOy6IDSr6BLu9DQx--40" edge="1">
          <mxGeometry relative="1" as="geometry" />
        </mxCell>
        <mxCell id="F9RwOy6IDSr6BLu9DQx--35" value="breadcrumb 표시" style="rounded=0;whiteSpace=wrap;html=1;" parent="1" vertex="1">
          <mxGeometry x="290" y="1660" width="120" height="60" as="geometry" />
        </mxCell>
        <mxCell id="F9RwOy6IDSr6BLu9DQx--43" style="edgeStyle=orthogonalEdgeStyle;rounded=0;orthogonalLoop=1;jettySize=auto;html=1;exitX=0.5;exitY=1;exitDx=0;exitDy=0;entryX=0.5;entryY=0;entryDx=0;entryDy=0;" parent="1" source="F9RwOy6IDSr6BLu9DQx--40" target="F9RwOy6IDSr6BLu9DQx--41" edge="1">
          <mxGeometry relative="1" as="geometry" />
        </mxCell>
        <mxCell id="F9RwOy6IDSr6BLu9DQx--40" value="current++" style="rounded=0;whiteSpace=wrap;html=1;" parent="1" vertex="1">
          <mxGeometry x="290" y="1750" width="120" height="60" as="geometry" />
        </mxCell>
        <mxCell id="F9RwOy6IDSr6BLu9DQx--45" style="edgeStyle=orthogonalEdgeStyle;rounded=0;orthogonalLoop=1;jettySize=auto;html=1;exitX=0;exitY=0.5;exitDx=0;exitDy=0;entryX=0;entryY=0.5;entryDx=0;entryDy=0;" parent="1" source="F9RwOy6IDSr6BLu9DQx--41" target="F9RwOy6IDSr6BLu9DQx--8" edge="1">
          <mxGeometry relative="1" as="geometry">
            <Array as="points">
              <mxPoint x="130" y="1870" />
              <mxPoint x="130" y="400" />
              <mxPoint x="210" y="400" />
            </Array>
          </mxGeometry>
        </mxCell>
        <mxCell id="F9RwOy6IDSr6BLu9DQx--41" value="질문표시" style="rounded=0;whiteSpace=wrap;html=1;" parent="1" vertex="1">
          <mxGeometry x="290" y="1840" width="120" height="60" as="geometry" />
        </mxCell>
        <mxCell id="F9RwOy6IDSr6BLu9DQx--49" style="edgeStyle=orthogonalEdgeStyle;rounded=0;orthogonalLoop=1;jettySize=auto;html=1;exitX=0.5;exitY=0;exitDx=0;exitDy=0;exitPerimeter=0;entryX=0.5;entryY=1;entryDx=0;entryDy=0;" parent="1" source="F9RwOy6IDSr6BLu9DQx--46" target="F9RwOy6IDSr6BLu9DQx--14" edge="1">
          <mxGeometry relative="1" as="geometry" />
        </mxCell>
        <mxCell id="F9RwOy6IDSr6BLu9DQx--50" value="Y" style="edgeLabel;html=1;align=center;verticalAlign=middle;resizable=0;points=[];" parent="F9RwOy6IDSr6BLu9DQx--49" vertex="1" connectable="0">
          <mxGeometry x="0.2129" y="-1" relative="1" as="geometry">
            <mxPoint as="offset" />
          </mxGeometry>
        </mxCell>
        <mxCell id="F9RwOy6IDSr6BLu9DQx--46" value="가입안함 선택" style="strokeWidth=2;html=1;shape=mxgraph.flowchart.decision;whiteSpace=wrap;" parent="1" vertex="1">
          <mxGeometry x="784" y="630" width="100" height="100" as="geometry" />
        </mxCell>
        <mxCell id="F9RwOy6IDSr6BLu9DQx--66" value="Y" style="edgeStyle=orthogonalEdgeStyle;rounded=0;orthogonalLoop=1;jettySize=auto;html=1;exitX=1;exitY=0.5;exitDx=0;exitDy=0;exitPerimeter=0;entryX=0;entryY=0.5;entryDx=0;entryDy=0;" parent="1" source="F9RwOy6IDSr6BLu9DQx--51" target="F9RwOy6IDSr6BLu9DQx--65" edge="1">
          <mxGeometry relative="1" as="geometry" />
        </mxCell>
        <mxCell id="F9RwOy6IDSr6BLu9DQx--51" value="배우자 정보?" style="strokeWidth=2;html=1;shape=mxgraph.flowchart.decision;whiteSpace=wrap;" parent="1" vertex="1">
          <mxGeometry x="784" y="780" width="100" height="100" as="geometry" />
        </mxCell>
        <mxCell id="F9RwOy6IDSr6BLu9DQx--83" style="edgeStyle=orthogonalEdgeStyle;rounded=0;orthogonalLoop=1;jettySize=auto;html=1;exitX=1;exitY=0.5;exitDx=0;exitDy=0;entryX=1;entryY=0.5;entryDx=0;entryDy=0;" parent="1" source="F9RwOy6IDSr6BLu9DQx--54" target="F9RwOy6IDSr6BLu9DQx--64" edge="1">
          <mxGeometry relative="1" as="geometry" />
        </mxCell>
        <mxCell id="F9RwOy6IDSr6BLu9DQx--54" value="배우자 정보 입력" style="rounded=0;whiteSpace=wrap;html=1;" parent="1" vertex="1">
          <mxGeometry x="1171" y="950" width="120" height="60" as="geometry" />
        </mxCell>
        <mxCell id="F9RwOy6IDSr6BLu9DQx--56" style="edgeStyle=orthogonalEdgeStyle;rounded=0;orthogonalLoop=1;jettySize=auto;html=1;exitX=0.5;exitY=1;exitDx=0;exitDy=0;exitPerimeter=0;entryX=0.5;entryY=0;entryDx=0;entryDy=0;entryPerimeter=0;" parent="1" source="F9RwOy6IDSr6BLu9DQx--13" target="F9RwOy6IDSr6BLu9DQx--20" edge="1">
          <mxGeometry relative="1" as="geometry" />
        </mxCell>
        <mxCell id="F9RwOy6IDSr6BLu9DQx--57" value="Y&lt;div&gt;&lt;br&gt;&lt;/div&gt;" style="edgeLabel;html=1;align=center;verticalAlign=middle;resizable=0;points=[];" parent="F9RwOy6IDSr6BLu9DQx--56" vertex="1" connectable="0">
          <mxGeometry x="-0.5282" y="1" relative="1" as="geometry">
            <mxPoint as="offset" />
          </mxGeometry>
        </mxCell>
        <mxCell id="F9RwOy6IDSr6BLu9DQx--62" value="N" style="edgeStyle=orthogonalEdgeStyle;rounded=0;orthogonalLoop=1;jettySize=auto;html=1;exitX=0.5;exitY=1;exitDx=0;exitDy=0;exitPerimeter=0;entryX=0.51;entryY=0.07;entryDx=0;entryDy=0;entryPerimeter=0;" parent="1" source="F9RwOy6IDSr6BLu9DQx--46" target="F9RwOy6IDSr6BLu9DQx--51" edge="1">
          <mxGeometry relative="1" as="geometry" />
        </mxCell>
        <mxCell id="F9RwOy6IDSr6BLu9DQx--73" style="edgeStyle=orthogonalEdgeStyle;rounded=0;orthogonalLoop=1;jettySize=auto;html=1;exitX=0.5;exitY=0;exitDx=0;exitDy=0;entryX=1;entryY=0.5;entryDx=0;entryDy=0;" parent="1" source="F9RwOy6IDSr6BLu9DQx--64" target="F9RwOy6IDSr6BLu9DQx--8" edge="1">
          <mxGeometry relative="1" as="geometry" />
        </mxCell>
        <mxCell id="F9RwOy6IDSr6BLu9DQx--64" value="배우자.validated = true" style="rounded=0;whiteSpace=wrap;html=1;" parent="1" vertex="1">
          <mxGeometry x="1160" y="640" width="120" height="60" as="geometry" />
        </mxCell>
        <mxCell id="F9RwOy6IDSr6BLu9DQx--94" value="N" style="edgeStyle=orthogonalEdgeStyle;rounded=0;orthogonalLoop=1;jettySize=auto;html=1;exitX=1;exitY=0.5;exitDx=0;exitDy=0;" parent="1" source="F9RwOy6IDSr6BLu9DQx--65" target="F9RwOy6IDSr6BLu9DQx--91" edge="1">
          <mxGeometry relative="1" as="geometry" />
        </mxCell>
        <mxCell id="F9RwOy6IDSr6BLu9DQx--65" value="배우자.validated" style="rhombus;whiteSpace=wrap;html=1;" parent="1" vertex="1">
          <mxGeometry x="940" y="790" width="80" height="80" as="geometry" />
        </mxCell>
        <mxCell id="F9RwOy6IDSr6BLu9DQx--75" style="edgeStyle=orthogonalEdgeStyle;rounded=0;orthogonalLoop=1;jettySize=auto;html=1;exitX=0.5;exitY=0;exitDx=0;exitDy=0;entryX=0.5;entryY=1;entryDx=0;entryDy=0;" parent="1" source="F9RwOy6IDSr6BLu9DQx--68" target="F9RwOy6IDSr6BLu9DQx--64" edge="1">
          <mxGeometry relative="1" as="geometry" />
        </mxCell>
        <mxCell id="F9RwOy6IDSr6BLu9DQx--68" value="배우자 정보 수정" style="rounded=0;whiteSpace=wrap;html=1;" parent="1" vertex="1">
          <mxGeometry x="1160" y="800" width="120" height="60" as="geometry" />
        </mxCell>
        <mxCell id="F9RwOy6IDSr6BLu9DQx--76" value="Y" style="edgeStyle=orthogonalEdgeStyle;rounded=0;orthogonalLoop=1;jettySize=auto;html=1;exitX=0.5;exitY=1;exitDx=0;exitDy=0;entryX=0.52;entryY=0.07;entryDx=0;entryDy=0;entryPerimeter=0;" parent="1" source="F9RwOy6IDSr6BLu9DQx--65" target="F9RwOy6IDSr6BLu9DQx--27" edge="1">
          <mxGeometry x="-0.0035" relative="1" as="geometry">
            <Array as="points">
              <mxPoint x="990" y="1450" />
              <mxPoint x="352" y="1450" />
            </Array>
            <mxPoint as="offset" />
          </mxGeometry>
        </mxCell>
        <mxCell id="F9RwOy6IDSr6BLu9DQx--80" style="edgeStyle=orthogonalEdgeStyle;rounded=0;orthogonalLoop=1;jettySize=auto;html=1;exitX=0.5;exitY=1;exitDx=0;exitDy=0;exitPerimeter=0;" parent="1" source="F9RwOy6IDSr6BLu9DQx--77" target="F9RwOy6IDSr6BLu9DQx--79" edge="1">
          <mxGeometry relative="1" as="geometry">
            <Array as="points">
              <mxPoint x="834" y="1040" />
              <mxPoint x="834" y="1040" />
            </Array>
          </mxGeometry>
        </mxCell>
        <mxCell id="F9RwOy6IDSr6BLu9DQx--81" value="Y" style="edgeLabel;html=1;align=center;verticalAlign=middle;resizable=0;points=[];" parent="F9RwOy6IDSr6BLu9DQx--80" vertex="1" connectable="0">
          <mxGeometry x="-0.2667" y="-1" relative="1" as="geometry">
            <mxPoint as="offset" />
          </mxGeometry>
        </mxCell>
        <mxCell id="F9RwOy6IDSr6BLu9DQx--82" value="N" style="edgeStyle=orthogonalEdgeStyle;rounded=0;orthogonalLoop=1;jettySize=auto;html=1;exitX=1;exitY=0.5;exitDx=0;exitDy=0;exitPerimeter=0;entryX=0;entryY=0.5;entryDx=0;entryDy=0;" parent="1" source="F9RwOy6IDSr6BLu9DQx--77" target="F9RwOy6IDSr6BLu9DQx--54" edge="1">
          <mxGeometry relative="1" as="geometry" />
        </mxCell>
        <mxCell id="F9RwOy6IDSr6BLu9DQx--77" value="보험변경기간" style="strokeWidth=2;html=1;shape=mxgraph.flowchart.decision;whiteSpace=wrap;" parent="1" vertex="1">
          <mxGeometry x="784" y="930" width="100" height="100" as="geometry" />
        </mxCell>
        <mxCell id="F9RwOy6IDSr6BLu9DQx--78" value="N" style="edgeStyle=orthogonalEdgeStyle;rounded=0;orthogonalLoop=1;jettySize=auto;html=1;exitX=0.5;exitY=1;exitDx=0;exitDy=0;exitPerimeter=0;entryX=0.49;entryY=0.1;entryDx=0;entryDy=0;entryPerimeter=0;" parent="1" source="F9RwOy6IDSr6BLu9DQx--51" target="F9RwOy6IDSr6BLu9DQx--77" edge="1">
          <mxGeometry relative="1" as="geometry">
            <Array as="points">
              <mxPoint x="834" y="900" />
              <mxPoint x="833" y="900" />
            </Array>
          </mxGeometry>
        </mxCell>
        <mxCell id="F9RwOy6IDSr6BLu9DQx--84" value="Y" style="edgeStyle=orthogonalEdgeStyle;rounded=0;orthogonalLoop=1;jettySize=auto;html=1;exitX=1;exitY=0.5;exitDx=0;exitDy=0;exitPerimeter=0;entryX=0.5;entryY=1;entryDx=0;entryDy=0;" parent="1" source="F9RwOy6IDSr6BLu9DQx--79" target="F9RwOy6IDSr6BLu9DQx--54" edge="1">
          <mxGeometry relative="1" as="geometry" />
        </mxCell>
        <mxCell id="F9RwOy6IDSr6BLu9DQx--85" value="N" style="edgeStyle=orthogonalEdgeStyle;rounded=0;orthogonalLoop=1;jettySize=auto;html=1;exitX=0.5;exitY=1;exitDx=0;exitDy=0;exitPerimeter=0;entryX=1;entryY=0.5;entryDx=0;entryDy=0;" parent="1" source="F9RwOy6IDSr6BLu9DQx--79" target="F9RwOy6IDSr6BLu9DQx--14" edge="1">
          <mxGeometry relative="1" as="geometry">
            <Array as="points">
              <mxPoint x="830" y="1160" />
              <mxPoint x="830" y="1180" />
              <mxPoint x="890" y="1180" />
              <mxPoint x="890" y="520" />
            </Array>
          </mxGeometry>
        </mxCell>
        <mxCell id="F9RwOy6IDSr6BLu9DQx--79" value="배우자 보험이 필수?" style="strokeWidth=2;html=1;shape=mxgraph.flowchart.decision;whiteSpace=wrap;" parent="1" vertex="1">
          <mxGeometry x="784" y="1060" width="100" height="100" as="geometry" />
        </mxCell>
        <mxCell id="F9RwOy6IDSr6BLu9DQx--95" value="Y" style="edgeStyle=orthogonalEdgeStyle;rounded=0;orthogonalLoop=1;jettySize=auto;html=1;exitX=1;exitY=0.5;exitDx=0;exitDy=0;entryX=0;entryY=0.5;entryDx=0;entryDy=0;" parent="1" source="F9RwOy6IDSr6BLu9DQx--91" target="F9RwOy6IDSr6BLu9DQx--68" edge="1">
          <mxGeometry relative="1" as="geometry" />
        </mxCell>
        <mxCell id="F9RwOy6IDSr6BLu9DQx--96" value="N" style="edgeStyle=orthogonalEdgeStyle;rounded=0;orthogonalLoop=1;jettySize=auto;html=1;exitX=0.5;exitY=1;exitDx=0;exitDy=0;entryX=0;entryY=0.5;entryDx=0;entryDy=0;" parent="1" source="F9RwOy6IDSr6BLu9DQx--91" target="F9RwOy6IDSr6BLu9DQx--54" edge="1">
          <mxGeometry relative="1" as="geometry" />
        </mxCell>
        <mxCell id="F9RwOy6IDSr6BLu9DQx--91" value="보험수정" style="rhombus;whiteSpace=wrap;html=1;" parent="1" vertex="1">
          <mxGeometry x="1060" y="790" width="80" height="80" as="geometry" />
        </mxCell>
        <mxCell id="F9RwOy6IDSr6BLu9DQx--100" value="N" style="edgeStyle=orthogonalEdgeStyle;rounded=0;orthogonalLoop=1;jettySize=auto;html=1;exitX=1;exitY=0.5;exitDx=0;exitDy=0;" parent="1" source="F9RwOy6IDSr6BLu9DQx--97" target="F9RwOy6IDSr6BLu9DQx--99" edge="1">
          <mxGeometry relative="1" as="geometry">
            <Array as="points">
              <mxPoint x="330" y="835" />
            </Array>
          </mxGeometry>
        </mxCell>
        <mxCell id="F9RwOy6IDSr6BLu9DQx--97" value="보험수정&amp;nbsp;&lt;div&gt;&amp;amp; 자녀정보?&lt;/div&gt;" style="rhombus;whiteSpace=wrap;html=1;" parent="1" vertex="1">
          <mxGeometry x="212.5" y="800" width="105" height="90" as="geometry" />
        </mxCell>
        <mxCell id="F9RwOy6IDSr6BLu9DQx--103" value="N" style="edgeStyle=orthogonalEdgeStyle;rounded=0;orthogonalLoop=1;jettySize=auto;html=1;exitX=1;exitY=0.5;exitDx=0;exitDy=0;entryX=0;entryY=0.5;entryDx=0;entryDy=0;" parent="1" source="F9RwOy6IDSr6BLu9DQx--99" target="F9RwOy6IDSr6BLu9DQx--102" edge="1">
          <mxGeometry relative="1" as="geometry" />
        </mxCell>
        <mxCell id="F9RwOy6IDSr6BLu9DQx--99" value="자녀보험선택완료&amp;nbsp;&lt;div&gt;or 현재자녀 주민번호&lt;/div&gt;" style="rhombus;whiteSpace=wrap;html=1;" parent="1" vertex="1">
          <mxGeometry x="380" y="769" width="150" height="130" as="geometry" />
        </mxCell>
        <mxCell id="F9RwOy6IDSr6BLu9DQx--104" style="edgeStyle=orthogonalEdgeStyle;rounded=0;orthogonalLoop=1;jettySize=auto;html=1;exitX=1;exitY=0.5;exitDx=0;exitDy=0;entryX=1;entryY=0.5;entryDx=0;entryDy=0;labelPosition=left;verticalLabelPosition=middle;align=right;verticalAlign=middle;" parent="1" source="F9RwOy6IDSr6BLu9DQx--102" target="F9RwOy6IDSr6BLu9DQx--8" edge="1">
          <mxGeometry relative="1" as="geometry">
            <mxPoint x="340" y="410" as="targetPoint" />
            <Array as="points">
              <mxPoint x="720" y="820" />
              <mxPoint x="720" y="410" />
            </Array>
          </mxGeometry>
        </mxCell>
        <mxCell id="F9RwOy6IDSr6BLu9DQx--102" value="자녀정보입력" style="rounded=0;whiteSpace=wrap;html=1;" parent="1" vertex="1">
          <mxGeometry x="565" y="804" width="120" height="60" as="geometry" />
        </mxCell>
        <mxCell id="F9RwOy6IDSr6BLu9DQx--105" value="&lt;font style=&quot;font-size: 27px;&quot;&gt;배우자&lt;/font&gt;" style="rounded=0;whiteSpace=wrap;html=1;gradientColor=none;fillColor=none;dashed=1;dashPattern=8 8;labelPosition=center;verticalLabelPosition=top;align=center;verticalAlign=bottom;" parent="1" vertex="1">
          <mxGeometry x="750" y="600" width="590" height="610" as="geometry" />
        </mxCell>
        <mxCell id="F9RwOy6IDSr6BLu9DQx--107" value="" style="edgeStyle=orthogonalEdgeStyle;rounded=0;orthogonalLoop=1;jettySize=auto;html=1;entryX=0.5;entryY=0;entryDx=0;entryDy=0;entryPerimeter=0;" parent="1" source="F9RwOy6IDSr6BLu9DQx--3" target="F9RwOy6IDSr6BLu9DQx--106" edge="1">
          <mxGeometry relative="1" as="geometry">
            <mxPoint x="270" y="60" as="sourcePoint" />
            <mxPoint x="268" y="190" as="targetPoint" />
          </mxGeometry>
        </mxCell>
        <mxCell id="F9RwOy6IDSr6BLu9DQx--106" value="&lt;div style=&quot;background-color:#282a36;color:#f8f8f2&quot;&gt;&lt;pre style=&quot;font-family:&#39;JetBrains Mono&#39;,monospace;font-size:9.0pt;&quot;&gt;&lt;span style=&quot;color:#ff79c6;&quot;&gt;this&lt;/span&gt;.&lt;span style=&quot;color:#ffb86c;&quot;&gt;current &lt;/span&gt;&amp;gt;= &lt;span style=&quot;color:#ff79c6;&quot;&gt;this&lt;/span&gt;.&lt;span style=&quot;color:#ffb86c;&quot;&gt;questions&lt;/span&gt;.&lt;span style=&quot;color:#ffb86c;&quot;&gt;length&lt;/span&gt;&lt;/pre&gt;&lt;/div&gt;" style="rhombus;whiteSpace=wrap;html=1;" parent="1" vertex="1">
          <mxGeometry x="98.75" y="80" width="342.5" height="80" as="geometry" />
        </mxCell>
        <mxCell id="F9RwOy6IDSr6BLu9DQx--108" value="선택 결과" style="strokeWidth=2;html=1;shape=mxgraph.flowchart.terminator;whiteSpace=wrap;" parent="1" vertex="1">
          <mxGeometry x="540" y="90" width="100" height="60" as="geometry" />
        </mxCell>
        <mxCell id="F9RwOy6IDSr6BLu9DQx--109" style="edgeStyle=orthogonalEdgeStyle;rounded=0;orthogonalLoop=1;jettySize=auto;html=1;exitX=1;exitY=0.5;exitDx=0;exitDy=0;entryX=0;entryY=0.5;entryDx=0;entryDy=0;entryPerimeter=0;" parent="1" source="F9RwOy6IDSr6BLu9DQx--106" target="F9RwOy6IDSr6BLu9DQx--108" edge="1">
          <mxGeometry relative="1" as="geometry" />
        </mxCell>
      </root>
    </mxGraphModel>
  </diagram>
</mxfile>
